<svg id="visual" viewBox="0 0 900 600" width="900" height="600" xmlns="http://www.w3.org/2000/svg" xmlns:xlink="http://www.w3.org/1999/xlink" version="1.1"><rect x="0" y="0" width="900" height="600" fill="#002233"></rect><path d="M766 600L765.2 587.5C764.3 575 762.7 550 763.8 525C765 500 769 475 756 450C743 425 713 400 695.8 375C678.7 350 674.3 325 681.8 300C689.3 275 708.7 250 710.7 225C712.7 200 697.3 175 689 150C680.7 125 679.3 100 693.5 75C707.7 50 737.3 25 752.2 12.5L767 0L900 0L900 12.5C900 25 900 50 900 75C900 100 900 125 900 150C900 175 900 200 900 225C900 250 900 275 900 300C900 325 900 350 900 375C900 400 900 425 900 450C900 475 900 500 900 525C900 550 900 575 900 587.5L900 600Z" fill="#e74c3c" stroke-linecap="round" stroke-linejoin="miter"></path></svg>