<svg id="visual" viewBox="0 0 900 600" width="900" height="600" xmlns="http://www.w3.org/2000/svg" xmlns:xlink="http://www.w3.org/1999/xlink" version="1.1"><rect x="0" y="0" width="900" height="600" fill="#021823"></rect><path d="M0 426L21.5 442C43 458 86 490 128.8 497.3C171.7 504.7 214.3 487.3 257.2 474C300 460.7 343 451.3 385.8 443.8C428.7 436.3 471.3 430.7 514.2 430.3C557 430 600 435 642.8 450.7C685.7 466.3 728.3 492.7 771.2 489.8C814 487 857 455 878.5 439L900 423L900 601L878.5 601C857 601 814 601 771.2 601C728.3 601 685.7 601 642.8 601C600 601 557 601 514.2 601C471.3 601 428.7 601 385.8 601C343 601 300 601 257.2 601C214.3 601 171.7 601 128.8 601C86 601 43 601 21.5 601L0 601Z" fill="#0656ce" stroke-linecap="round" stroke-linejoin="miter"></path></svg>